# xmcd
#
# Track frame offsets:
#	150
#	18029
#	36694
#	57296
#	78562
#	94715
#	113902
#	129581
#	146391
#	164825
#	186434
#	207521
#	221267
#	241451
#
# Disc length: 3438 seconds
#
# Revision: 2
# Processed by: cddbd v1.5.2PL0 Copyright (c) Steve Scherf et al.
# Submitted via: audiograbber 1.83.01
#
DISCID=ce0d6c0e
DTITLE=Gilliard - Como Eu Gosto
DYEAR=2001
DGENRE=Latin
TTITLE0=Tenho Um Amor Melhor do Que o Seu
TTITLE1=Você Não Sabe o Que é Paixão
TTITLE2=Aquela Nuvem
TTITLE3=Luz do Sol
TTITLE4=Minhas Coisas
TTITLE5=Me Dê Motivo
TTITLE6=Não Sou de Ferro
TTITLE7=Nosso Juramento
TTITLE8=Amor Sem Medida
TTITLE9=Não Diga Nada
TTITLE10=Pouco a Pouco
TTITLE11=Festa dos Insetos
TTITLE12=Quem Me Dera
TTITLE13=Quem Viver Verá
EXTD=Dados Por - Dayvison de Azevedo - Recife - PE\nFacebook - https://www.face
EXTD=book.com/profile.php?id=100006142608616
EXTT0=
EXTT1=
EXTT2=
EXTT3=
EXTT4=
EXTT5=
EXTT6=
EXTT7=
EXTT8=
EXTT9=
EXTT10=
EXTT11=
EXTT12=
EXTT13=
PLAYORDER=
